<svg width="16" height="16" viewBox="0 0 16 16" fill="none" xmlns="http://www.w3.org/2000/svg">
<path d="M2.7364 12.0718L1.94258 11.4636H1.94258L2.7364 12.0718ZM3.51172 9.89199L2.51172 9.87964V9.89199H3.51172ZM3.52799 8.57408L4.52799 8.58643V8.57408H3.52799ZM13.2664 12.0823L14.0723 11.4903L14.0723 11.4903L13.2664 12.0823ZM12.5203 9.89199L11.5203 9.879V9.89199H12.5203ZM12.5366 8.63939L13.5366 8.65238V8.63939H12.5366ZM11.1327 12.6931C11.1327 12.1408 10.685 11.6931 10.1327 11.6931C9.5804 11.6931 9.13268 12.1408 9.13268 12.6931H11.1327ZM6.86602 12.6931C6.86602 12.1408 6.4183 11.6931 5.86602 11.6931C5.31373 11.6931 4.86602 12.1408 4.86602 12.6931H6.86602ZM1.73954 4.1176C1.53168 4.62928 1.77798 5.21257 2.28965 5.42043C2.80133 5.62829 3.38463 5.382 3.59249 4.87032L1.73954 4.1176ZM5.01291 3.26906C5.50057 3.00982 5.68574 2.40433 5.4265 1.91667C5.16726 1.42901 4.56178 1.24384 4.07412 1.50308L5.01291 3.26906ZM11.9207 1.51378C11.4358 1.24941 10.8284 1.42818 10.564 1.91308C10.2996 2.39798 10.4784 3.00538 10.9633 3.26975L11.9207 1.51378ZM12.4022 4.85457C12.6045 5.36846 13.1851 5.62103 13.699 5.4187C14.2129 5.21638 14.4655 4.63577 14.2632 4.12188L12.4022 4.85457ZM3.53022 12.6799C4.01411 12.0483 4.51172 11.0846 4.51172 9.89199H2.51172C2.51172 10.5184 2.24774 11.0653 1.94258 11.4636L3.53022 12.6799ZM4.51164 9.90434L4.52791 8.58643L2.52807 8.56173L2.51179 9.87964L4.51164 9.90434ZM14.0723 11.4903C13.7807 11.0934 13.5203 10.5369 13.5203 9.89199H11.5203C11.5203 11.0786 11.9952 12.041 12.4606 12.6744L14.0723 11.4903ZM13.5202 9.90498L13.5365 8.65238L11.5367 8.6264L11.5204 9.879L13.5202 9.90498ZM13.5366 8.63939C13.5366 5.59446 11.0495 3.14051 7.99935 3.14051V5.14051C9.96092 5.14051 11.5366 6.715 11.5366 8.63939H13.5366ZM12.9949 13.6931C13.6516 13.6931 14.0561 13.2356 14.215 12.8657C14.3724 12.4989 14.4128 11.9537 14.0723 11.4903L12.4605 12.6744C12.2835 12.4335 12.327 12.1936 12.3772 12.0767C12.4288 11.9565 12.6158 11.6931 12.9949 11.6931V13.6931ZM4.52799 8.57408C4.52799 6.68576 6.07415 5.14051 7.99935 5.14051V3.14051C4.98562 3.14051 2.52799 5.56522 2.52799 8.57408H4.52799ZM3.00444 11.6931C3.39145 11.6931 3.57619 11.9654 3.62443 12.0813C3.67157 12.1945 3.71579 12.4377 3.53022 12.6799L1.94258 11.4636C1.58698 11.9278 1.62469 12.4816 1.77808 12.85C1.93258 13.2211 2.33635 13.6931 3.00444 13.6931V11.6931ZM12.9949 11.6931H3.00444V13.6931H12.9949V11.6931ZM9.13268 12.6931C9.13268 13.1591 8.69993 13.6668 7.99935 13.6668V15.6668C9.65518 15.6668 11.1327 14.4073 11.1327 12.6931H9.13268ZM7.99935 13.6668C7.29877 13.6668 6.86602 13.1591 6.86602 12.6931H4.86602C4.86602 14.4073 6.34351 15.6668 7.99935 15.6668V13.6668ZM8.42157 2.737C8.42157 2.94741 8.24506 3.14051 7.99935 3.14051V5.14051C9.32458 5.14051 10.4216 4.07687 10.4216 2.737H8.42157ZM7.99935 3.14051C7.75363 3.14051 7.57713 2.94741 7.57713 2.737H5.57713C5.57713 4.07687 6.67412 5.14051 7.99935 5.14051V3.14051ZM7.57713 2.737C7.57713 2.5266 7.75363 2.3335 7.99935 2.3335V0.333496C6.67412 0.333496 5.57713 1.39714 5.57713 2.737H7.57713ZM7.99935 2.3335C8.24506 2.3335 8.42157 2.5266 8.42157 2.737H10.4216C10.4216 1.39714 9.32458 0.333496 7.99935 0.333496V2.3335ZM3.59249 4.87032C3.87445 4.17622 4.37408 3.60866 5.01291 3.26906L4.07412 1.50308C2.99762 2.07535 2.18769 3.01441 1.73954 4.1176L3.59249 4.87032ZM10.9633 3.26975C11.6358 3.63643 12.1433 4.197 12.4022 4.85457L14.2632 4.12188C13.8185 2.99246 12.9705 2.08614 11.9207 1.51378L10.9633 3.26975Z" fill="#4E5556"/>
</svg>
